<?xml version="1.0" standalone="no"?>
<!DOCTYPE svg PUBLIC "-//W3C//DTD SVG 20010904//EN"
 "http://www.w3.org/TR/2001/REC-SVG-20010904/DTD/svg10.dtd">
<svg version="1.0" xmlns="http://www.w3.org/2000/svg"
 width="250.000000pt" height="309.000000pt" viewBox="0 0 250.000000 309.000000"
 preserveAspectRatio="xMidYMid meet">

<g transform="translate(0.000000,309.000000) scale(0.100000,-0.100000)"
fill="#000000" stroke="none">
<path d="M0 1545 l0 -1545 1250 0 1250 0 0 1545 0 1545 -1250 0 -1250 0 0
-1545z m231 1388 c-11 -5 -11 -7 0 -14 12 -7 11 -9 -1 -9 -13 0 -13 -1 0 -10
13 -8 12 -10 -2 -10 -13 0 -18 8 -18 25 0 17 5 25 18 24 12 0 13 -2 3 -6z m55
-22 c1 -14 -1 -20 -3 -13 -4 10 -8 10 -21 0 -14 -10 -15 -10 -5 1 6 7 9 19 7
26 -3 6 1 12 8 12 7 0 14 -12 14 -26z m41 22 c-9 -2 -15 -8 -13 -12 3 -4 1
-13 -5 -21 -6 -11 -9 -8 -9 13 0 22 4 27 23 26 17 -1 18 -2 4 -6z m48 -3 c-13
-6 -15 -9 -5 -9 13 -1 13 -3 1 -10 -11 -7 -10 -10 5 -14 16 -4 16 -5 -3 -6
-18 -1 -23 4 -23 24 0 19 5 25 23 24 21 0 21 -1 2 -9z m63 -14 c-2 -18 -6 -22
-14 -15 -8 7 -14 6 -17 -3 -3 -7 -6 -1 -6 15 -1 21 4 27 19 27 15 0 19 -6 18
-24z m34 -1 c-2 -14 -6 -25 -7 -25 -1 0 -5 11 -7 25 -3 16 -1 25 7 25 8 0 10
-9 7 -25z m45 -12 c-3 -10 -5 -4 -5 12 0 17 2 24 5 18 2 -7 2 -21 0 -30z m40
20 c6 -15 7 -15 14 3 6 15 8 14 8 -10 1 -28 0 -28 -18 -12 -18 17 -19 17 -24
-1 -3 -12 -5 -9 -6 10 -1 30 16 37 26 10z m53 7 c-10 -6 -11 -10 -2 -10 6 0
12 -7 12 -15 0 -8 -8 -15 -17 -15 -14 0 -15 2 -4 9 9 6 10 11 2 15 -17 11 -13
26 7 26 14 0 15 -2 2 -10z m27 -22 c-3 -7 -5 -2 -5 12 0 14 2 19 5 13 2 -7 2
-19 0 -25z m46 25 c-25 -5 -30 -18 -12 -29 6 -3 16 0 21 7 8 12 9 11 5 -1 -5
-21 -33 -24 -41 -5 -9 23 1 35 27 34 22 -2 22 -2 0 -6z m52 -13 c7 0 16 6 18
13 3 6 6 1 6 -12 1 -18 -3 -22 -16 -17 -9 4 -20 1 -25 -6 -5 -8 -7 -2 -7 17 0
17 3 24 6 18 2 -7 11 -13 18 -13z m57 -5 c-2 -14 -6 -25 -7 -25 -1 0 -5 11 -7
25 -3 16 -1 25 7 25 8 0 10 -9 7 -25z m693 -195 c0 -20 -6 -26 -26 -28 -30 -4
-46 22 -28 45 20 23 54 12 54 -17z m-1193 -67 l32 -67 31 67 c29 64 31 66 68
67 l37 0 0 -115 0 -115 -30 0 -30 0 0 68 0 67 -27 -57 c-35 -77 -60 -79 -93
-7 -28 58 -37 67 -37 36 -1 -104 -2 -107 -28 -107 l-25 0 0 115 0 115 35 0
c34 0 37 -3 67 -67z m688 32 c0 -20 5 -25 25 -25 18 0 25 -5 25 -20 0 -15 -7
-20 -25 -20 -22 0 -25 -4 -25 -40 0 -33 3 -40 19 -40 19 0 39 -35 28 -47 -11
-10 -78 -5 -92 7 -10 8 -15 31 -15 66 0 41 -4 54 -15 54 -8 0 -15 9 -15 20 0
11 7 20 15 20 9 0 15 9 15 25 0 21 5 25 30 25 25 0 30 -4 30 -25z m-326 -36
c24 -19 26 -27 26 -90 l0 -69 -47 0 c-27 0 -61 -1 -77 -1 -31 -1 -56 22 -56
51 0 32 26 52 73 57 27 3 44 10 41 15 -4 6 -24 8 -45 5 -31 -4 -41 -1 -49 13
-20 38 90 54 134 19z m191 11 c22 -9 24 -13 15 -31 -7 -11 -17 -19 -23 -16
-41 15 -57 17 -57 8 0 -6 18 -18 40 -27 21 -9 42 -25 45 -35 7 -22 -18 -69
-38 -70 -6 0 -20 -2 -30 -4 -23 -4 -87 14 -87 25 0 30 12 38 40 28 16 -5 37
-8 47 -5 13 3 4 10 -29 25 -42 19 -48 25 -48 51 0 51 60 76 125 51z m359 -12
c15 -13 29 -38 32 -55 l7 -33 -62 0 c-35 0 -61 -4 -61 -10 0 -17 30 -23 55
-12 30 14 55 -9 36 -32 -28 -33 -118 -23 -146 17 -60 86 60 194 139 125z m136
12 c0 -7 6 -7 19 0 30 16 41 12 41 -14 0 -17 -9 -29 -27 -38 -25 -12 -28 -20
-31 -66 -3 -50 -4 -52 -33 -52 l-29 0 0 90 0 90 30 0 c17 0 30 -5 30 -10z
m150 -80 l0 -90 -30 0 -30 0 0 90 0 90 30 0 30 0 0 -90z m110 81 c0 -5 14 -4
30 2 25 9 36 9 58 -4 25 -14 27 -20 30 -92 l3 -77 -31 0 -30 0 0 61 c0 60 0
60 -27 57 -27 -3 -28 -6 -31 -60 -3 -57 -4 -58 -32 -58 l-30 0 0 90 0 90 30 0
c17 0 30 -4 30 -9z m271 -1 c13 -7 19 -7 19 0 0 5 14 10 30 10 l30 0 0 -99 c0
-124 -11 -142 -91 -148 -61 -5 -95 11 -83 40 5 14 14 16 45 11 25 -4 44 -2 54
6 24 20 18 25 -29 22 -37 -3 -46 0 -65 23 -56 73 12 176 90 135z m-1500 -305
c18 -10 27 -21 23 -28 -20 -34 -25 -36 -61 -20 -33 13 -38 13 -62 -5 -43 -32
-41 -90 5 -111 39 -17 64 -6 64 30 0 26 3 29 30 29 29 0 30 -2 30 -45 0 -39
-4 -46 -30 -60 -16 -8 -49 -15 -74 -15 -36 0 -52 6 -80 30 -111 98 20 264 155
195z m234 -70 c48 -47 25 -135 -40 -151 -36 -9 -90 3 -109 25 -9 10 -19 34
-22 53 -5 27 -1 40 21 66 23 28 33 32 76 32 40 0 55 -5 74 -25z m-242 -310
c-7 -21 -13 -19 -13 6 0 11 4 18 10 14 5 -3 7 -12 3 -20z m177 4 c0 -11 -4
-18 -9 -14 -5 3 -12 1 -16 -5 -9 -14 -25 -3 -25 17 0 10 6 14 20 10 11 -3 20
-1 20 4 0 5 2 9 5 9 3 0 5 -9 5 -21z m310 -1 c0 -18 -2 -20 -9 -9 -8 12 -13
12 -24 3 -12 -10 -16 -9 -21 4 -4 11 -2 15 7 11 8 -3 20 -1 28 4 19 12 19 12
19 -13z m107 -10 c-3 -7 -5 -2 -5 12 0 14 2 19 5 13 2 -7 2 -19 0 -25z m283
14 c0 -10 -6 -19 -13 -19 -8 0 -14 6 -14 13 0 7 4 11 9 8 4 -3 8 0 8 5 0 6 2
11 5 11 3 0 5 -8 5 -18z m117 -14 c-3 -7 -5 -2 -5 12 0 14 2 19 5 13 2 -7 2
-19 0 -25z m-1051 9 c4 -4 13 -2 21 4 10 9 13 8 13 -4 0 -20 -16 -31 -25 -17
-3 5 -13 10 -21 10 -9 0 -12 -5 -8 -12 4 -7 3 -8 -4 -4 -17 10 -15 35 3 32 8
-1 18 -5 21 -9z m104 2 c0 -4 -7 -9 -15 -13 -9 -3 -15 0 -15 8 0 7 7 13 15 13
8 0 15 -4 15 -8z m170 -2 c0 -8 -7 -14 -15 -14 -11 0 -12 4 -4 14 6 7 13 13
15 13 2 0 4 -6 4 -13z m24 -2 c-4 -8 -8 -15 -10 -15 -2 0 -4 7 -4 15 0 8 4 15
10 15 5 0 7 -7 4 -15z m43 0 c0 -6 -6 -12 -14 -12 -7 0 -13 6 -13 12 0 6 6 12
13 12 8 0 14 -6 14 -12z m19 -20 c-3 -8 -11 -15 -18 -14 -10 0 -10 2 0 6 6 2
12 14 13 26 0 12 3 16 6 9 3 -7 2 -19 -1 -27z m73 18 c0 -11 -3 -13 -6 -5 -7
17 -21 15 -26 -5 -4 -14 -5 -12 -6 5 -1 16 5 22 19 22 13 0 20 -6 19 -17z m18
-5 c-3 -8 -6 -5 -6 6 -1 11 2 17 5 13 3 -3 4 -12 1 -19z m20 0 c-3 -8 -6 -5
-6 6 -1 11 2 17 5 13 3 -3 4 -12 1 -19z m96 2 c3 -11 1 -18 -4 -14 -5 3 -9 12
-9 20 0 20 7 17 13 -6z m24 -2 c-3 -8 -6 -5 -6 6 -1 11 2 17 5 13 3 -3 4 -12
1 -19z m80 0 c-3 -8 -6 -5 -6 6 -1 11 2 17 5 13 3 -3 4 -12 1 -19z m93 5 c0
-16 -2 -16 -11 -3 -8 12 -12 12 -16 2 -4 -10 -8 -10 -20 -1 -12 10 -16 10 -24
-2 -7 -11 -9 -11 -9 4 0 13 9 17 40 17 31 0 40 -4 40 -17z m60 4 c0 -8 -7 -14
-15 -14 -25 0 -17 17 13 26 1 1 2 -5 2 -12z m49 -4 c0 -11 -3 -13 -6 -5 -7 17
-21 15 -26 -5 -4 -14 -5 -12 -6 5 -1 16 5 22 19 22 13 0 20 -6 19 -17z m18
-15 c-3 -7 -5 -2 -5 12 0 14 2 19 5 13 2 -7 2 -19 0 -25z m60 10 c-3 -8 -6 -5
-6 6 -1 11 2 17 5 13 3 -3 4 -12 1 -19z m27 7 c-4 -8 -8 -15 -10 -15 -2 0 -4
7 -4 15 0 8 4 15 10 15 5 0 7 -7 4 -15z m56 2 c0 -7 -8 -13 -19 -13 -11 0 -17
5 -14 13 3 7 11 13 19 13 8 0 14 -6 14 -13z m90 -4 c0 -15 -2 -16 -10 -3 -9
13 -11 13 -20 0 -8 -13 -10 -12 -10 3 0 10 8 17 20 17 12 0 20 -7 20 -17z m37
-5 c-3 -8 -6 -5 -6 6 -1 11 2 17 5 13 3 -3 4 -12 1 -19z m33 7 c11 -13 10 -14
-4 -9 -9 3 -16 10 -16 15 0 13 6 11 20 -6z m58 0 c9 17 11 17 12 4 0 -17 -23
-32 -34 -22 -3 4 -6 13 -5 22 0 12 2 11 8 -4 8 -19 8 -19 19 0z m42 -1 c0 -8
-5 -12 -10 -9 -6 4 -8 11 -5 16 9 14 15 11 15 -7z m17 -6 c-3 -8 -6 -5 -6 6
-1 11 2 17 5 13 3 -3 4 -12 1 -19z m40 0 c-3 -8 -6 -5 -6 6 -1 11 2 17 5 13 3
-3 4 -12 1 -19z m27 7 c-4 -8 -8 -15 -10 -15 -2 0 -4 7 -4 15 0 8 4 15 10 15
5 0 7 -7 4 -15z m26 0 c0 -8 -4 -15 -10 -15 -5 0 -7 7 -4 15 4 8 8 15 10 15 2
0 4 -7 4 -15z m-1251 -82 c10 -19 9 -22 -4 -17 -8 4 -15 15 -15 27 0 23 2 22
19 -10z m48 -5 c-3 -7 -5 -2 -5 12 0 14 2 19 5 13 2 -7 2 -19 0 -25z m916 13
c-4 -3 -11 -10 -15 -15 -5 -5 -8 0 -8 12 0 15 4 20 16 15 9 -3 12 -9 7 -12z
m154 -13 c-3 -7 -5 -2 -5 12 0 14 2 19 5 13 2 -7 2 -19 0 -25z m-1353 15 c-5
-5 -12 -12 -16 -18 -4 -6 -8 -2 -8 8 0 9 7 17 17 17 9 0 12 -3 7 -7z m72 -13
c0 -16 -2 -16 -23 -3 -13 9 -23 11 -23 5 0 -6 6 -13 13 -15 9 -4 9 -6 0 -6
-15 -1 -26 16 -19 28 11 16 52 9 52 -9z m55 6 c5 3 9 0 9 -6 0 -7 -7 -10 -15
-6 -8 3 -15 1 -15 -5 0 -6 -4 -7 -10 -4 -5 3 -10 11 -10 16 0 6 5 7 10 4 6 -3
10 0 11 7 0 10 2 10 6 0 2 -6 9 -10 14 -6z m46 8 c-3 -3 -12 -4 -19 -1 -8 3
-5 6 6 6 11 1 17 -2 13 -5z m26 -14 c-3 -11 -7 -20 -9 -20 -2 0 -4 9 -4 20 0
11 4 20 9 20 5 0 7 -9 4 -20z m144 14 c-3 -3 -12 -4 -19 -1 -8 3 -5 6 6 6 11
1 17 -2 13 -5z m26 -14 c-3 -11 -7 -20 -9 -20 -2 0 -4 9 -4 20 0 11 4 20 9 20
5 0 7 -9 4 -20z m47 -5 c-16 -15 -22 -17 -32 -7 -11 11 -10 12 5 7 9 -4 17 -3
17 3 0 6 -6 12 -12 15 -7 2 -1 4 14 3 27 -1 27 -1 8 -21z m37 3 c-3 -8 -6 -5
-6 6 -1 11 2 17 5 13 3 -3 4 -12 1 -19z m43 11 c0 -5 -4 -7 -10 -4 -5 3 -10 2
-10 -4 0 -5 6 -12 13 -14 7 -3 5 -6 -5 -6 -12 -1 -18 6 -18 19 0 11 7 20 15
20 8 0 15 -5 15 -11z m30 7 c0 -3 -4 -8 -10 -11 -5 -3 -10 -1 -10 4 0 6 5 11
10 11 6 0 10 -2 10 -4z m60 -6 c-13 -9 -13 -11 0 -20 9 -6 10 -10 3 -10 -6 0
-15 5 -18 10 -8 13 3 30 18 30 7 0 6 -4 -3 -10z m100 -8 c0 -14 -2 -15 -10 -2
-7 12 -12 11 -30 -5 -15 -13 -24 -15 -31 -8 -17 17 -4 29 35 30 27 1 36 -3 36
-15z m30 8 c-13 -9 -13 -11 0 -20 9 -6 10 -10 3 -10 -6 0 -15 5 -18 10 -8 13
3 30 18 30 7 0 6 -4 -3 -10z m41 -15 c5 4 9 1 9 -4 0 -6 -7 -11 -15 -11 -9 0
-15 9 -14 23 1 17 2 18 6 4 2 -9 9 -15 14 -12z m32 10 c-3 -9 -8 -14 -10 -11
-3 3 -2 9 2 15 9 16 15 13 8 -4z m73 4 c3 -5 -2 -6 -10 -3 -9 3 -16 2 -16 -4
0 -6 6 -13 13 -15 9 -4 9 -6 -1 -6 -7 -1 -15 6 -19 15 -5 13 -7 13 -14 2 -7
-10 -9 -9 -9 3 0 18 46 24 56 8z m43 -6 c0 -11 -3 -13 -6 -5 -2 6 -9 10 -14 6
-5 -3 -9 0 -9 5 0 6 7 11 15 11 8 0 15 -8 14 -17z m31 7 c-13 -9 -13 -11 0
-20 9 -6 10 -10 3 -10 -15 0 -26 17 -18 30 3 6 12 10 18 10 7 0 6 -4 -3 -10z
m50 2 c0 -5 -6 -16 -13 -26 -12 -16 -13 -16 -14 4 -1 11 2 18 8 15 5 -4 9 -1
9 4 0 6 2 11 5 11 3 0 5 -4 5 -8z m70 -3 c0 -5 -4 -8 -9 -4 -5 3 -12 -3 -14
-12 -4 -14 -5 -13 -6 5 -1 13 5 22 14 22 8 0 15 -5 15 -11z m30 -4 c0 -8 -2
-15 -4 -15 -2 0 -6 7 -10 15 -3 8 -1 15 4 15 6 0 10 -7 10 -15z m38 -8 c2 -10
-3 -17 -12 -17 -9 0 -16 5 -16 11 0 5 5 7 10 4 6 -3 10 -2 10 4 0 5 -5 12 -10
14 -6 3 -5 4 2 3 7 -1 14 -10 16 -19z m32 13 c-13 -9 -13 -11 0 -20 13 -8 12
-10 -2 -10 -11 0 -18 8 -18 20 0 12 7 20 18 20 14 0 15 -2 2 -10z m67 -12 c-3
-8 -6 -5 -6 6 -1 11 2 17 5 13 3 -3 4 -12 1 -19z m50 -3 c1 -16 1 -16 -3 -2
-3 9 -9 17 -14 17 -5 0 -11 -8 -13 -17 -3 -13 -5 -12 -6 5 -1 30 33 27 36 -3z
m43 14 c0 -5 -5 -7 -12 -3 -8 5 -9 2 -5 -9 3 -10 2 -17 -3 -17 -6 0 -10 9 -10
20 0 11 7 20 15 20 8 0 15 -5 15 -11z m76 -1 c5 -7 3 -8 -6 -3 -10 6 -12 4 -7
-8 3 -10 2 -17 -3 -17 -6 0 -10 9 -10 20 0 22 15 27 26 8z m42 -11 c2 -10 -3
-17 -12 -17 -9 0 -16 5 -16 11 0 5 5 7 10 4 6 -3 10 -2 10 4 0 5 -5 12 -10 14
-6 3 -5 4 2 3 7 -1 14 -10 16 -19z m71 1 c-1 -17 -2 -19 -6 -5 -5 20 -23 23
-23 5 0 -9 -3 -9 -9 1 -7 11 -10 10 -14 -5 -4 -16 -5 -16 -6 4 -1 18 4 22 29
22 25 0 30 -4 29 -22z m18 0 c-3 -8 -6 -5 -6 6 -1 11 2 17 5 13 3 -3 4 -12 1
-19z m37 14 c-6 -4 -14 -14 -17 -22 -4 -10 -6 -8 -6 8 -1 15 5 22 17 22 10 0
13 -3 6 -8z m54 -14 c-4 -27 -23 -34 -32 -13 -8 21 1 35 20 35 10 0 14 -8 12
-22z m-1268 -14 c0 -2 -7 -4 -15 -4 -8 0 -15 4 -15 10 0 5 7 7 15 4 8 -4 15
-8 15 -10z m-173 0 c-3 -3 -12 -4 -19 -1 -8 3 -5 6 6 6 11 1 17 -2 13 -5z
m-77 -59 c0 -18 -5 -25 -20 -25 -25 0 -26 25 -2 39 23 14 22 14 22 -14z m350
0 c0 -15 -6 -25 -14 -25 -24 0 -30 22 -11 37 25 17 25 17 25 -12z m-443 -5 c1
-13 -4 -20 -15 -19 -11 0 -13 2 -4 6 10 4 10 8 1 19 -9 11 -8 14 3 14 7 0 14
-9 15 -20z m37 13 c-5 -5 -12 -12 -16 -18 -4 -6 -8 -2 -8 8 0 9 7 17 17 17 9
0 12 -3 7 -7z m114 -16 c2 -10 -3 -17 -12 -17 -9 0 -16 5 -16 11 0 5 5 7 10 4
6 -3 10 -2 10 4 0 5 -5 12 -10 14 -6 3 -5 4 2 3 7 -1 14 -10 16 -19z m39 17
c-3 -3 -12 -4 -19 -1 -8 3 -5 6 6 6 11 1 17 -2 13 -5z m81 -17 c2 -10 -3 -17
-12 -17 -9 0 -16 5 -16 11 0 5 5 7 10 4 6 -3 10 -2 10 4 0 5 -5 12 -10 14 -6
3 -5 4 2 3 7 -1 14 -10 16 -19z m36 16 c-5 -5 -12 -12 -16 -18 -4 -6 -8 -2 -8
8 0 9 7 17 17 17 9 0 12 -3 7 -7z m36 -3 c-13 -9 -13 -11 0 -20 17 -11 10 -13
-14 -4 -13 5 -14 9 -5 20 6 8 17 14 23 14 6 0 4 -5 -4 -10z m50 -1 c0 -5 -4
-7 -10 -4 -5 3 -10 2 -10 -4 0 -5 6 -12 13 -14 9 -4 9 -6 0 -6 -15 -1 -26 16
-18 29 8 13 25 13 25 -1z m110 -9 c0 -12 -7 -20 -17 -20 -15 0 -16 2 -3 10 13
9 13 11 0 20 -13 8 -12 10 3 10 10 0 17 -8 17 -20z m56 8 c-12 -7 -21 -7 -28
0 -6 6 0 10 18 10 23 0 24 -2 10 -10z m54 -8 c0 -11 -7 -20 -15 -20 -8 0 -15
5 -15 11 0 5 5 7 12 3 8 -5 9 -2 5 9 -3 10 -2 17 3 17 6 0 10 -9 10 -20z m47
0 c1 -11 -2 -20 -5 -20 -4 0 -8 9 -9 20 -1 11 2 20 5 20 4 0 8 -9 9 -20z m29
1 c0 -11 -4 -17 -8 -15 -10 7 -10 34 0 34 4 0 8 -9 8 -19z m40 7 c4 -6 3 -8
-4 -4 -6 3 -13 -2 -15 -11 -4 -14 -5 -13 -6 5 -1 23 13 30 25 10z m34 -8 c0
-13 -6 -20 -17 -19 -11 0 -13 3 -5 6 6 2 12 11 12 19 0 8 2 14 5 14 3 0 5 -9
5 -20z m30 10 c-13 -9 -13 -11 0 -20 13 -8 12 -10 -2 -10 -10 0 -18 6 -18 13
0 17 10 27 24 27 6 0 4 -5 -4 -10z m46 -2 c4 -6 3 -8 -4 -4 -6 3 -13 -2 -15
-11 -4 -14 -5 -13 -6 5 -1 23 13 30 25 10z m34 -8 c0 -13 -6 -20 -17 -19 -11
0 -13 3 -5 6 6 2 12 11 12 19 0 8 2 14 5 14 3 0 5 -9 5 -20z m23 0 c-3 -11 -7
-20 -9 -20 -2 0 -4 9 -4 20 0 11 4 20 9 20 5 0 7 -9 4 -20z m43 8 c5 -7 3 -8
-6 -3 -10 6 -12 4 -7 -8 3 -10 2 -17 -3 -17 -13 0 -22 18 -15 30 8 13 22 13
31 -2z m31 -8 c1 -11 -2 -20 -5 -20 -4 0 -8 9 -9 20 -1 11 2 20 5 20 4 0 8 -9
9 -20z m-745 -12 c-7 -7 -12 -8 -12 -2 0 14 12 26 19 19 2 -3 -1 -11 -7 -17z
m-32 2 c0 -5 -8 -10 -17 -10 -15 0 -16 2 -3 10 19 12 20 12 20 0z m345 -8 c-3
-3 -11 0 -18 7 -9 10 -8 11 6 5 10 -3 15 -9 12 -12z m268 -467 c-3 -9 -8 -14
-10 -11 -3 3 -2 9 2 15 9 16 15 13 8 -4z m-16 -85 c-1 -11 -8 -22 -15 -25 -10
-4 -12 0 -8 11 3 8 6 20 6 25 0 5 4 9 9 9 6 0 9 -9 8 -20z m-14 -48 c3 -4 -3
-25 -14 -46 -15 -31 -16 -42 -7 -48 10 -6 9 -8 -2 -9 -12 0 -12 -2 -1 -6 11
-5 11 -7 0 -15 -9 -5 0 -6 25 -2 28 5 37 4 32 -5 -4 -6 -20 -11 -35 -11 -39 0
-105 -34 -125 -65 -9 -14 -29 -31 -44 -38 -15 -6 -30 -16 -33 -20 -8 -11 -49
9 -49 23 0 6 4 10 8 10 5 0 18 9 29 19 11 11 39 24 61 30 38 11 92 59 92 83 0
5 9 23 21 39 11 16 21 38 22 49 1 20 12 26 20 12z m114 -138 c-3 -3 -12 -4
-19 -1 -8 3 -5 6 6 6 11 1 17 -2 13 -5z m1009 -140 c47 -23 74 -64 81 -126 3
-29 12 -57 19 -61 20 -12 17 -48 -4 -54 -15 -3 -21 -21 -30 -76 -7 -44 -7 -76
-2 -83 6 -6 36 -19 67 -29 151 -47 150 -55 -12 -55 -117 0 -125 1 -125 19 0
13 -6 19 -19 18 -12 -1 -17 -7 -13 -19 4 -15 -2 -18 -41 -18 -25 0 -47 3 -49
8 -2 4 -17 18 -33 32 -21 18 -25 19 -14 5 31 -39 31 -45 5 -45 -22 0 -30 9
-48 50 -26 60 -34 60 -13 0 8 -23 15 -44 15 -46 0 -2 -53 -4 -117 -4 -117 0
-118 1 -94 19 13 10 47 26 76 35 51 16 97 48 108 77 5 12 7 12 16 -1 8 -12 11
-8 11 18 0 17 -5 32 -10 32 -18 0 -50 63 -50 98 0 46 26 54 57 16 21 -27 23
-28 23 -7 0 12 -4 25 -10 28 -13 8 -13 101 0 126 28 51 140 74 206 43z m-16
-646 l0 -62 33 32 c32 31 57 41 57 24 0 -5 -11 -19 -25 -32 l-24 -23 26 -33
c23 -31 24 -34 7 -34 -11 0 -31 14 -46 32 l-27 33 -1 -32 c0 -23 -5 -33 -15
-33 -12 0 -15 17 -15 95 0 78 3 95 15 95 12 0 15 -14 15 -62z m-312 40 c17
-17 15 -64 -4 -82 -8 -9 -31 -16 -50 -16 -32 0 -34 -2 -34 -35 0 -28 -4 -35
-20 -35 -19 0 -20 7 -20 90 l0 90 58 0 c32 0 63 -5 70 -12z m462 -23 c0 -8 7
-15 15 -15 8 0 15 -6 15 -14 0 -8 -7 -16 -15 -20 -10 -4 -15 -20 -15 -51 0
-33 -4 -45 -15 -45 -11 0 -15 12 -15 50 0 28 -4 50 -10 50 -5 0 -10 7 -10 15
0 8 5 15 10 15 6 0 10 7 10 15 0 8 7 15 15 15 8 0 15 -7 15 -15z m-1910 -55
c0 -27 -5 -50 -10 -50 -6 0 -10 22 -9 50 1 28 6 50 11 50 4 0 8 -22 8 -50z
m40 35 c0 -9 9 -15 21 -15 12 0 23 -8 26 -20 3 -11 9 -17 14 -15 4 3 6 12 2
20 -4 11 3 15 26 15 29 0 31 -3 31 -35 0 -19 -1 -35 -3 -35 -1 0 -17 4 -34 9
-20 6 -35 6 -39 0 -8 -14 -24 0 -24 22 0 10 -4 19 -10 19 -5 0 -10 -11 -10
-25 0 -14 -4 -25 -9 -25 -10 0 -18 55 -13 83 4 21 22 23 22 2z m158 -32 c-2
-27 -7 -48 -13 -48 -5 0 -11 21 -13 48 -3 38 0 47 13 47 13 0 16 -9 13 -47z
m32 -3 c0 -27 -5 -50 -10 -50 -6 0 -10 22 -9 50 1 28 6 50 11 50 4 0 8 -22 8
-50z m430 31 c0 -15 5 -18 23 -14 17 5 20 3 10 -7 -16 -18 -6 -43 12 -27 7 6
10 18 7 25 -3 10 3 13 24 10 25 -3 29 -7 29 -32 0 -28 -3 -30 -40 -31 -22 -1
-45 2 -52 7 -7 5 -14 5 -18 -2 -13 -20 -25 2 -25 46 0 32 4 44 15 44 8 0 15
-9 15 -19z m145 -29 c0 -59 -19 -57 -23 2 -2 36 0 47 10 44 8 -3 13 -21 13
-46z m-904 16 l12 -23 10 23 c18 39 37 27 37 -23 0 -25 -4 -45 -10 -45 -5 0
-10 10 -10 22 0 21 0 21 -14 2 -15 -19 -15 -19 -30 1 -15 20 -15 20 -16 -3 0
-13 -4 -20 -10 -17 -5 3 -10 24 -10 46 0 45 21 54 41 17z m509 13 c0 -5 -5
-11 -11 -13 -6 -2 -13 -15 -14 -28 -4 -40 -5 -41 -15 -35 -5 3 -10 19 -10 36
0 16 -4 29 -10 29 -5 0 -10 5 -10 10 0 6 16 10 35 10 19 0 35 -4 35 -9z m1185
-59 c0 -56 -2 -62 -20 -62 -11 0 -30 -3 -42 -6 -15 -4 -29 2 -47 20 -31 31
-33 55 -5 90 18 23 27 26 67 23 l47 -3 0 -62z m115 58 c20 -13 4 -25 -33 -25
-26 0 -33 -5 -35 -23 -5 -32 16 -55 44 -48 32 8 40 -12 11 -25 -19 -9 -31 -8
-53 2 -24 12 -30 21 -32 56 -2 33 1 44 20 57 25 18 56 20 78 6z m292 -17 c15
-15 28 -31 28 -35 0 -20 -45 -68 -63 -68 -18 0 -17 3 6 34 l26 33 -24 23 c-14
13 -25 27 -25 32 0 16 25 7 52 -19z m-1704 -20 c0 -30 -14 -44 -35 -36 -20 8
-16 23 5 17 16 -5 16 -5 0 6 -26 16 -22 40 6 40 19 0 24 -5 24 -27z m160 -2
c1 -31 -17 -45 -43 -35 -21 8 -8 24 13 17 11 -3 9 1 -6 11 -26 20 -21 36 12
36 19 0 23 -6 24 -29z m81 5 c5 -27 -26 -48 -50 -35 -19 10 -25 39 -12 53 14
14 58 1 62 -18z m34 4 c3 -11 10 -20 16 -20 6 0 11 9 11 20 0 11 5 20 11 20 6
0 9 -14 7 -32 -3 -32 -8 -35 -58 -29 -12 1 -13 61 -1 61 5 0 11 -9 14 -20z
m317 -5 c3 -11 14 -21 25 -23 18 -2 18 -2 3 8 -26 16 -22 40 6 40 19 0 24 -5
24 -27 0 -34 -14 -44 -43 -33 -12 5 -27 5 -34 0 -25 -15 -51 1 -51 32 0 27 3
29 32 26 22 -2 34 -9 38 -23z m1140 -115 c0 -6 -125 -10 -356 -10 -234 0 -353
3 -349 10 4 6 133 10 356 10 226 0 349 -4 349 -10z"/>
<path d="M560 2544 c0 -11 8 -14 27 -12 39 4 42 28 4 28 -21 0 -31 -5 -31 -16z"/>
<path d="M1124 2612 c-17 -16 -16 -17 10 -20 38 -5 55 13 28 27 -16 9 -24 7
-38 -7z"/>
<path d="M1824 2606 c-16 -42 24 -83 52 -54 25 25 11 68 -22 68 -13 0 -27 -6
-30 -14z"/>
<path d="M502 2243 c-13 -25 3 -63 26 -63 28 0 45 25 38 55 -8 30 -50 35 -64
8z"/>
<path d="M500 1969 c0 -5 5 -7 10 -4 6 3 10 8 10 11 0 2 -4 4 -10 4 -5 0 -10
-5 -10 -11z"/>
<path d="M840 1890 c0 -5 5 -10 10 -10 6 0 10 5 10 10 0 6 -4 10 -10 10 -5 0
-10 -4 -10 -10z"/>
<path d="M1810 1891 c0 -6 5 -13 10 -16 6 -3 10 1 10 9 0 9 -4 16 -10 16 -5 0
-10 -4 -10 -9z"/>
<path d="M290 1810 c0 -5 5 -10 10 -10 6 0 10 5 10 10 0 6 -4 10 -10 10 -5 0
-10 -4 -10 -10z"/>
<path d="M640 1810 c0 -5 5 -10 10 -10 6 0 10 5 10 10 0 6 -4 10 -10 10 -5 0
-10 -4 -10 -10z"/>
<path d="M2048 753 c7 -3 16 -2 19 1 4 3 -2 6 -13 5 -11 0 -14 -3 -6 -6z"/>
<path d="M2175 750 c3 -5 10 -10 16 -10 5 0 9 5 9 10 0 6 -7 10 -16 10 -8 0
-12 -4 -9 -10z"/>
<path d="M2153 733 c-8 -3 -9 -12 -1 -34 11 -33 20 -31 25 6 4 25 -5 35 -24
28z"/>
<path d="M2025 720 c-8 -13 25 -13 45 0 12 8 9 10 -12 10 -15 0 -30 -4 -33
-10z"/>
<path d="M2060 700 c-13 -8 -12 -10 3 -10 9 0 17 5 17 10 0 12 -1 12 -20 0z"/>
<path d="M2130 472 c0 -5 7 -16 16 -23 14 -12 16 -11 13 5 -4 20 -29 35 -29
18z"/>
<path d="M1710 265 c0 -24 3 -26 33 -23 24 2 32 8 32 23 0 15 -8 21 -32 23
-30 3 -33 1 -33 -23z"/>
<path d="M1850 221 c-18 -34 10 -68 44 -55 35 13 23 74 -14 74 -11 0 -24 -9
-30 -19z"/>
<path d="M842 219 c2 -6 8 -10 13 -10 5 0 11 4 13 10 2 6 -4 11 -13 11 -9 0
-15 -5 -13 -11z"/>
<path d="M1192 221 c4 -13 18 -16 19 -4 0 4 -5 9 -11 12 -7 2 -11 -2 -8 -8z"/>
</g>
</svg>
